<svg width="120" height="26" viewBox="0 0 120 26" fill="none" xmlns="http://www.w3.org/2000/svg">
<path d="M114.262 19.8195H111.116V7.39343C111.116 6.94777 110.723 6.55454 110.277 6.55454H105.375V3.40869H110.277C111.142 3.40869 111.981 3.69706 112.689 4.22137C113.397 3.69706 114.236 3.40869 115.101 3.40869H120.003V6.55454H115.101C114.655 6.55454 114.262 6.94777 114.262 7.39343V19.8195Z" fill="#4EA674"/>
<path d="M97.5784 14.5502H93.515V19.8195H90.3691V7.39343C90.3691 5.19134 92.1518 3.40869 94.3539 3.40869H98.9154C101.983 3.40869 104.499 5.89916 104.499 8.96636C104.499 11.0898 103.293 13.0035 101.432 13.9473L104.866 19.8195H101.222L98.5746 15.2581C98.3124 14.8124 98.1289 14.6027 97.5784 14.5502ZM93.515 11.4044H98.9154C100.252 11.4044 101.353 10.3033 101.353 8.96636C101.353 7.65559 100.252 6.55454 98.9154 6.55454H94.3539C93.9082 6.55454 93.515 6.94777 93.515 7.39343V11.4044Z" fill="#4EA674"/>
<path d="M56.373 19.8195V7.39343C56.373 5.19134 58.1557 3.40869 60.3578 3.40869H64.2377C67.6719 3.40869 70.5031 6.21374 70.5031 9.67417C70.5031 13.1084 67.6719 15.9397 64.2377 15.9397H59.5189V19.8195H56.373ZM64.2377 12.7938C65.9417 12.7938 67.3573 11.3782 67.3573 9.67417C67.3573 7.97017 65.9417 6.55454 64.2377 6.55454H60.3578C59.9121 6.55454 59.5189 6.94777 59.5189 7.39343V12.7938H64.2377Z" fill="#4EA674"/>
<path d="M42.5273 3.40869H45.6732V15.8348C45.6732 16.2805 46.0664 16.6737 46.5121 16.6737H54.9534V19.8195H46.5121C44.31 19.8195 42.5273 18.0369 42.5273 15.8348V3.40869Z" fill="#4EA674"/>
<path d="M19.8343 19.8197C17.6323 19.8197 15.8496 18.0371 15.8496 15.835V7.39363C15.8496 5.19154 17.6323 3.40889 19.8343 3.40889H28.2757V6.55474H19.8343C19.3887 6.55474 18.9955 6.94797 18.9955 7.39363V9.7268H26.7552V12.8727H18.9955V15.835C18.9955 16.2807 19.3887 16.6739 19.8343 16.6739H24.8415C29.403 16.6739 32.2342 8.83548 34.148 5.24397C34.9344 3.69726 36.7433 2.77972 38.4473 3.17295C40.0989 3.56619 41.1213 5.03425 41.1213 6.73825V19.8197H37.9754V15.7039H31.9721C30.1632 18.0633 27.9087 19.8197 24.8415 19.8197C23.1637 19.8197 21.5121 19.8197 19.8343 19.8197ZM37.9754 12.5581V6.73825C37.9754 5.87314 37.2152 6.18773 36.9006 6.76446C35.8782 8.67819 35.0131 10.6443 33.9644 12.5581H37.9754Z" fill="#4EA674"/>
<path d="M0 19.8195V7.39343C0 5.19134 1.78265 3.40869 3.98474 3.40869H6.02954C11.0105 3.40869 14.5233 6.73805 14.5495 11.6403C14.5495 15.9659 11.6659 19.8195 7.07816 19.8195H0ZM3.11963 7.39343V16.6737H7.07816C9.85699 16.6737 11.4037 14.1832 11.4037 11.6403C11.4037 8.49448 9.2016 6.55454 6.02954 6.55454H3.98474C3.53908 6.55454 3.11963 6.94777 3.11963 7.39343Z" fill="#4EA674"/>
<path d="M78.9558 16.9307C79.2269 16.93 79.452 17.0236 79.6492 17.2207C79.8463 17.4178 79.9392 17.6427 79.9382 17.9131C79.9372 18.1855 79.8438 18.4124 79.6482 18.6104C79.4548 18.8061 79.2306 18.8997 78.9568 18.8984H78.9548C78.682 18.8984 78.4569 18.8046 78.2615 18.6094C78.0659 18.4138 77.9718 18.1878 77.9714 17.9141C77.9711 17.641 78.0646 17.4156 78.2605 17.2207C78.4573 17.025 78.6835 16.9313 78.9558 16.9307ZM85.5125 16.9307C85.7834 16.9301 86.0087 17.0236 86.2058 17.2207C86.4029 17.4178 86.4958 17.6428 86.4949 17.9131C86.4939 18.1854 86.4003 18.4124 86.2048 18.6104C86.0114 18.8061 85.7864 18.8998 85.5125 18.8984H85.5115C85.2385 18.8984 85.0126 18.8049 84.8171 18.6094C84.6216 18.4138 84.5284 18.1878 84.5281 17.9141C84.5278 17.641 84.6212 17.4156 84.8171 17.2207C85.0139 17.0251 85.2402 16.9313 85.5125 16.9307ZM76.9451 6.44141L77.4783 7.56543L77.5681 7.75195H88.0369L85.1375 12.9971H79.4822L79.3894 13.167L78.6677 14.4785L78.4001 14.9639H86.4949V15.6201H77.2966L78.9802 12.5654L79.0613 12.4189L78.989 12.2666L76.6287 7.28418L76.5398 7.09668H75.3494V6.44141H76.9451Z" fill="#4EA674" stroke="#4EA674" stroke-width="0.655624"/>
<path d="M71.8572 9.04883H76.381" stroke="#4EA674" stroke-width="0.452381" stroke-linecap="round"/>
<path d="M73.2166 11.3125H76.8356" stroke="#4EA674" stroke-width="0.452381" stroke-linecap="round"/>
<path d="M71.4041 13.5742H76.8326" stroke="#4EA674" stroke-width="0.452381" stroke-linecap="round"/>
</svg>
